<svg xmlns="http://www.w3.org/2000/svg" width="40" height="40" viewBox="0 0 24 24" fill="#230063">
  <path d="M23.954 4.569a10 10 0 0 1-2.825.775 4.932 4.932 0 0 0 2.163-2.723 9.864 9.864 0 0 1-3.127 1.195 4.916 4.916 0 0 0-8.384 4.482A13.948 13.948 0 0 1 1.671 3.149a4.822 4.822 0 0 0-.664 2.475 4.92 4.92 0 0 0 2.188 4.1 4.904 4.904 0 0 1-2.228-.616c-.054 2.281 1.581 4.415 3.949 4.89a4.935 4.935 0 0 1-2.224.084 4.93 4.93 0 0 0 4.6 3.417A9.868 9.868 0 0 1 0 19.54a13.945 13.945 0 0 0 7.548 2.212c9.057 0 14.01-7.496 13.995-14.216 0-.217-.005-.432-.014-.647a9.935 9.935 0 0 0 2.425-2.52z"></path>
</svg>
